<?xml version="1.0" ?>
<mxfile host="app.diagrams.net">
  <diagram name="Cucumber E2E Flow">
    <mxGraphModel>
      <root>
        <mxCell id="0"/>
        <mxCell id="1" parent="0"/>
        <mxCell id="start" value="Start - GitLab CI/CD Pipeline Triggered" style="ellipse" vertex="1" parent="1">
          <mxGeometry x="20" y="20" width="220" height="40" as_="geometry"/>
        </mxCell>
        <mxCell id="sonar" value="Stage 1: Sonar
- Run SonarQube
- Code Smell/Bugs
- Quality Gate" style="rounded=1" vertex="1" parent="1">
          <mxGeometry x="20" y="80" width="220" height="80" as_="geometry"/>
        </mxCell>
        <mxCell id="e2e" value="Stage 2: Run E2E Suite
(Stock Feature Flow)" style="rounded=1" vertex="1" parent="1">
          <mxGeometry x="20" y="180" width="220" height="60" as_="geometry"/>
        </mxCell>
        <mxCell id="health" value="Health Check:
- LIL &amp; FRF Healthy?" style="rhombus" vertex="1" parent="1">
          <mxGeometry x="280" y="180" width="160" height="60" as_="geometry"/>
        </mxCell>
        <mxCell id="publish" value="Publish Stock File
(LIL to S3)" style="rounded=1" vertex="1" parent="1">
          <mxGeometry x="480" y="180" width="160" height="60" as_="geometry"/>
        </mxCell>
        <mxCell id="verify_lil" value="Verify Stock File in S3 (LIL)" style="rhombus" vertex="1" parent="1">
          <mxGeometry x="680" y="180" width="180" height="60" as_="geometry"/>
        </mxCell>
        <mxCell id="upstreams" value="Check Stock File in S3:
- Deal Structure
- Covenant
- Mitigant" style="rounded=1" vertex="1" parent="1">
          <mxGeometry x="880" y="180" width="200" height="80" as_="geometry"/>
        </mxCell>
        <mxCell id="notify" value="Notify Feeder
(on behalf of upstreams)" style="rounded=1" vertex="1" parent="1">
          <mxGeometry x="1120" y="180" width="180" height="60" as_="geometry"/>
        </mxCell>
        <mxCell id="feeder_events" value="Feeder DB:
All Events Received?" style="rhombus" vertex="1" parent="1">
          <mxGeometry x="1340" y="180" width="180" height="60" as_="geometry"/>
        </mxCell>
        <mxCell id="staging" value="Feeder:
Staging Complete?" style="rhombus" vertex="1" parent="1">
          <mxGeometry x="1540" y="180" width="160" height="60" as_="geometry"/>
        </mxCell>
        <mxCell id="gateway" value="Final Check:
Stock Published to Fresh Gateway?" style="rhombus" vertex="1" parent="1">
          <mxGeometry x="1740" y="180" width="220" height="60" as_="geometry"/>
        </mxCell>
        <mxCell id="report" value="Stage 3: Generate Report
- Cucumber Results
- Business Report" style="rounded=1" vertex="1" parent="1">
          <mxGeometry x="20" y="300" width="220" height="80" as_="geometry"/>
        </mxCell>
        <mxCell id="cleanup" value="Stage 4: Clean Up
- Remove Temp Data" style="rounded=1" vertex="1" parent="1">
          <mxGeometry x="20" y="400" width="220" height="60" as_="geometry"/>
        </mxCell>
        <mxCell id="end" value="End - Pipeline Completed" style="ellipse" vertex="1" parent="1">
          <mxGeometry x="20" y="480" width="220" height="40" as_="geometry"/>
        </mxCell>
        <mxCell id="100" style="edgeStyle=orthogonalEdgeStyle" edge="1" parent="1" source="start" target="sonar">
          <mxGeometry relative="1" as_="geometry"/>
        </mxCell>
        <mxCell id="101" style="edgeStyle=orthogonalEdgeStyle" edge="1" parent="1" source="sonar" target="e2e">
          <mxGeometry relative="1" as_="geometry"/>
        </mxCell>
        <mxCell id="102" style="edgeStyle=orthogonalEdgeStyle" edge="1" parent="1" source="e2e" target="health">
          <mxGeometry relative="1" as_="geometry"/>
        </mxCell>
        <mxCell id="103" style="edgeStyle=orthogonalEdgeStyle" edge="1" parent="1" source="health" target="publish">
          <mxGeometry relative="1" as_="geometry"/>
        </mxCell>
        <mxCell id="104" style="edgeStyle=orthogonalEdgeStyle" edge="1" parent="1" source="publish" target="verify_lil">
          <mxGeometry relative="1" as_="geometry"/>
        </mxCell>
        <mxCell id="105" style="edgeStyle=orthogonalEdgeStyle" edge="1" parent="1" source="verify_lil" target="upstreams">
          <mxGeometry relative="1" as_="geometry"/>
        </mxCell>
        <mxCell id="106" style="edgeStyle=orthogonalEdgeStyle" edge="1" parent="1" source="upstreams" target="notify">
          <mxGeometry relative="1" as_="geometry"/>
        </mxCell>
        <mxCell id="107" style="edgeStyle=orthogonalEdgeStyle" edge="1" parent="1" source="notify" target="feeder_events">
          <mxGeometry relative="1" as_="geometry"/>
        </mxCell>
        <mxCell id="108" style="edgeStyle=orthogonalEdgeStyle" edge="1" parent="1" source="feeder_events" target="staging">
          <mxGeometry relative="1" as_="geometry"/>
        </mxCell>
        <mxCell id="109" style="edgeStyle=orthogonalEdgeStyle" edge="1" parent="1" source="staging" target="gateway">
          <mxGeometry relative="1" as_="geometry"/>
        </mxCell>
        <mxCell id="110" style="edgeStyle=orthogonalEdgeStyle" edge="1" parent="1" source="gateway" target="report">
          <mxGeometry relative="1" as_="geometry"/>
        </mxCell>
        <mxCell id="111" style="edgeStyle=orthogonalEdgeStyle" edge="1" parent="1" source="report" target="cleanup">
          <mxGeometry relative="1" as_="geometry"/>
        </mxCell>
        <mxCell id="112" style="edgeStyle=orthogonalEdgeStyle" edge="1" parent="1" source="cleanup" target="end">
          <mxGeometry relative="1" as_="geometry"/>
        </mxCell>
      </root>
    </mxGraphModel>
  </diagram>
</mxfile>
